<?xml version="1.0" encoding="iso-8859-1"?>
<!-- Generator: Adobe Illustrator 19.0.0, SVG Export Plug-In . SVG Version: 6.00 Build 0)  -->
<svg version="1.1" id="Layer_1" xmlns="http://www.w3.org/2000/svg" xmlns:xlink="http://www.w3.org/1999/xlink" x="0px" y="0px"
	 viewBox="0 0 512.001 512.001" style="enable-background:new 0 0 512.001 512.001;" xml:space="preserve">
<path style="fill:#3F9797;" d="M444.639,311.137h-47.021c-8.907,19.143-20.845,35.041-35.616,49.805L62.579,311.137H15.568
	c-11.345,0-18.875,12.04-14.118,22.34C41.558,420.305,128.934,481.03,229.897,481.03h0.129c67.222,0,130.151-26.461,177.698-73.986
	c21.609-21.599,38.742-46.635,51.012-73.638C463.436,323.066,455.997,311.137,444.639,311.137z"/>
<path style="fill:#46A8A8;" d="M230.083,339.204L62.579,311.137H15.568c-11.345,0-18.875,12.04-14.118,22.34
	C41.558,420.305,128.934,481.03,229.897,481.03h0.129C229.897,481.03,230.083,339.204,230.083,339.204z"/>
<path style="fill:#94BD81;" d="M102.242,230.765L102.242,230.765c0-26.154-21.202-47.355-47.355-47.355H31.762v46.561
	c0,109.766,88.393,200.105,198.161,200.16c109.544,0.055,198.364-88.731,198.364-198.262v-57.03l30.504-11.275
	c28.548-10.552,48.964-35.968,53.114-66.119l0,0c0.833-6.048-3.867-11.438-9.971-11.438H352.952
	c-17.748,0-32.135,14.387-32.135,32.135v72.373c0,40.207-32.63,72.782-72.837,72.714l-113.519-0.193
	C116.657,263.006,102.242,248.567,102.242,230.765z"/>
<path style="fill:#98E790;" d="M102.242,230.765L102.242,230.765c0-26.154-21.202-47.355-47.355-47.355H31.762v46.561
	c0,109.766,88.393,200.105,198.161,200.16l0.16-166.902l-95.626-0.193C116.657,263.006,102.242,248.567,102.242,230.765z"/>
<g>
	<circle style="fill:#3F9797;stroke:#FFFFFF;stroke-width:10;stroke-miterlimit:10;" cx="390.334" cy="66.652" r="30.681"/>
	<path style="fill:#3F9797;" d="M250.121,276.441h-93.508c-9.683,0-17.532-8.264-17.532-17.946s7.85-17.946,17.532-17.946h93.508
		c9.683,0,17.532,8.264,17.532,17.946C267.655,268.177,259.805,276.441,250.121,276.441z"/>
</g>
<path style="fill:#46A8A8;" d="M236.822,276.441h-80.208c-9.683,0-17.532-8.264-17.532-17.946s7.85-17.946,17.532-17.946h80.208
	L236.822,276.441L236.822,276.441z"/>
<g>
</g>
<g>
</g>
<g>
</g>
<g>
</g>
<g>
</g>
<g>
</g>
<g>
</g>
<g>
</g>
<g>
</g>
<g>
</g>
<g>
</g>
<g>
</g>
<g>
</g>
<g>
</g>
<g>
</g>
</svg>
